<svg
   role="img"
   viewBox="0 0 24 24"
   xmlns="http://www.w3.org/2000/svg">
  <title>YouTube</title>
  <path
     d="M 10.724686,23.549071 C 7.9753182,23.22885 5.7204822,22.14 3.7722542,20.191773 2.0405132,18.460031 1.0332182,16.575316 0.56097119,14.18325 c -0.241493,-1.223229 -0.241493,-3.057602 0,-4.2808297 0.47224701,-2.392066 1.47954201,-4.276782 3.21128301,-6.008524 1.731742,-1.731741 3.616458,-2.7390359 6.008524,-3.2112829 1.2232278,-0.241493 3.0575998,-0.241493 4.2808288,0 2.392066,0.472247 4.27678,1.4795419 6.008523,3.2112829 1.731742,1.731742 2.739037,3.616458 3.211284,6.008524 0.13475,0.6825467 0.171109,1.1373607 0.171109,2.1404147 0,1.479042 -0.166068,2.501062 -0.616811,3.796016 -0.214637,0.616633 -0.57528,1.458001 -0.679328,1.584841 -0.0072,0.0087 -0.167987,-0.03847 -0.357385,-0.104906 -0.267263,-0.09374 -0.516247,-0.109952 -1.112132,-0.0724 l -0.767773,0.04839 -0.403799,-0.427011 c -0.582571,-0.61606 -0.627217,-0.807371 -0.382784,-1.640249 0.308233,-1.050272 0.385905,-1.818904 0.283062,-2.801115 -0.198453,-1.89534 -0.942489,-3.7328627 -2.00182,-4.9438387 l -0.356112,-0.407089 -0.05369,-1.267111 c -0.04383,-1.034393 -0.07788,-1.293839 -0.185392,-1.412644 -0.266348,-0.29431 -0.394299,-0.264751 -1.347884,0.311383 l -0.914658,0.552613 -0.615608,-0.19447 c -0.945526,-0.298692 -1.563201,-0.380891 -2.514704,-0.334653 -1.344322,0.06533 -2.5163188,0.46848 -3.6468328,1.25447 l -0.475609,0.330666 -0.945632,-0.236915 c -0.846803,-0.212155 -0.965674,-0.225503 -1.137386,-0.127713 -0.3170119,0.180538 -0.3206919,0.347983 -0.03254,1.480733 l 0.270346,1.062754 -0.315572,0.679205 C 4.2769423,11.036682 4.0535983,13.233974 4.5369093,15.131474 c 0.6318009,2.480482 2.1657079,4.001127 4.7217499,4.680924 0.682919,0.181628 0.9216268,0.205933 2.0835788,0.21215 2.547535,0.01363 4.395054,-0.494152 5.739413,-1.577449 l 0.472128,-0.380445 0.111019,0.210935 c 0.272431,0.517613 1.478245,1.461083 2.154377,1.685658 l 0.395182,0.131258 -0.563992,0.52831 c -1.444758,1.353351 -3.475728,2.367712 -5.537202,2.765535 -0.921843,0.177898 -2.569848,0.256063 -3.388477,0.160717 z M 9.4333762,14.388937 c -1.618904,-0.347606 -2.38018,-1.183483 -2.646423,-2.905759 -0.02461,-0.159212 -0.07907,-0.289477 -0.121012,-0.289477 -0.04194,0 -0.251741,0.08892 -0.466215,0.197604 -0.339769,0.172174 -0.386607,0.180229 -0.363952,0.06259 0.01529,-0.0794 0.191046,-0.201357 0.426654,-0.296068 0.469432,-0.188704 0.449949,-0.171501 0.518882,-0.458154 l 0.05383,-0.223845 -0.54473,0.04567 c -0.299602,0.02512 -0.544731,0.017 -0.544731,-0.01803 0,-0.0914 0.291364,-0.156627 0.705041,-0.157846 0.348064,-0.001 0.445227,-0.08668 0.451814,-0.3982877 5.83e-4,-0.02742 -0.276844,-0.07446 -0.616497,-0.104527 -0.477828,-0.0423 -0.617552,-0.08128 -0.617552,-0.172288 0,-0.09516 0.06266,-0.10759 0.328075,-0.0651 0.958345,0.153427 0.984222,0.153075 0.984222,-0.01336 0,-0.08577 0.144486,-0.446547 0.321079,-0.80173 0.446487,-0.898023 1.394465,-1.853742 2.240635,-2.258931 2.2490898,-1.076978 4.9047518,-0.404236 6.2282858,1.577772 0.167697,0.251127 0.318457,0.497255 0.335022,0.54695 0.02109,0.06327 0.214159,0.02906 0.644103,-0.114119 0.70781,-0.235723 0.729248,-0.238753 0.729248,-0.103083 0,0.06032 -0.247469,0.172902 -0.610844,0.2779 l -0.610844,0.176506 0.07904,0.226727 c 0.0786,0.225481 0.08164,0.226466 0.552949,0.179208 0.260652,-0.02613 0.517333,-0.06107 0.570404,-0.07764 0.05307,-0.01656 0.09649,0.0046 0.09649,0.04707 0,0.09944 -0.09513,0.127364 -0.643612,0.188943 -0.441402,0.04956 -0.44957,0.0548 -0.398993,0.256318 0.0284,0.113149 0.06295,0.217045 0.07679,0.230879 0.01384,0.01384 0.254172,0.06438 0.534084,0.1123307 0.32068,0.05493 0.508928,0.124206 0.508928,0.187287 0,0.121509 -0.0035,0.121423 -0.569984,-0.01387 l -0.454195,-0.108479 0.04323,0.418837 c 0.133362,1.292153 -0.433182,2.438764 -1.519585,3.075438 -1.228122,0.719728 -4.120055,1.111712 -5.6996298,0.772552 z"/>
</svg>
